<mxfile host="app.diagrams.net" modified="2024-05-20T22:55:02.757Z" agent="Mozilla/5.0 (Windows NT 10.0; Win64; x64; rv:125.0) Gecko/20100101 Firefox/125.0" etag="_VxqPEL5DSY-fNcfdEyY" version="24.4.4" type="device">
  <diagram name="Page-1" id="5f0bae14-7c28-e335-631c-24af17079c00">
    <mxGraphModel dx="1436" dy="895" grid="1" gridSize="10" guides="1" tooltips="1" connect="1" arrows="1" fold="1" page="1" pageScale="1" pageWidth="1100" pageHeight="850" background="none" math="0" shadow="0">
      <root>
        <mxCell id="0" />
        <mxCell id="1" parent="0" />
        <mxCell id="8AIeRsSoH0E0mP_s3LuW-178" value="" style="group" vertex="1" connectable="0" parent="1">
          <mxGeometry x="577" y="60" width="190" height="710" as="geometry" />
        </mxCell>
        <mxCell id="8AIeRsSoH0E0mP_s3LuW-13" value="" style="shape=folder;fontStyle=1;spacingTop=10;tabWidth=40;tabHeight=14;tabPosition=left;html=1;whiteSpace=wrap;" vertex="1" parent="8AIeRsSoH0E0mP_s3LuW-178">
          <mxGeometry x="25.90909090909091" width="164.0909090909091" height="710" as="geometry" />
        </mxCell>
        <mxCell id="8AIeRsSoH0E0mP_s3LuW-27" value="«Data»&lt;br&gt;&lt;b&gt;AatMgDB&lt;/b&gt;" style="html=1;dropTarget=0;whiteSpace=wrap;" vertex="1" parent="8AIeRsSoH0E0mP_s3LuW-178">
          <mxGeometry x="43.18181818181818" y="60" width="130.98772727272728" height="70" as="geometry" />
        </mxCell>
        <mxCell id="8AIeRsSoH0E0mP_s3LuW-28" value="" style="shape=module;jettyWidth=8;jettyHeight=4;" vertex="1" parent="8AIeRsSoH0E0mP_s3LuW-27">
          <mxGeometry x="1" width="20" height="20" relative="1" as="geometry">
            <mxPoint x="-27" y="7" as="offset" />
          </mxGeometry>
        </mxCell>
        <mxCell id="8AIeRsSoH0E0mP_s3LuW-29" value="«Data»&lt;br&gt;&lt;b&gt;EmergenzaMgDB&lt;/b&gt;" style="html=1;dropTarget=0;whiteSpace=wrap;" vertex="1" parent="8AIeRsSoH0E0mP_s3LuW-178">
          <mxGeometry x="43.18181818181818" y="140" width="130.98772727272728" height="70" as="geometry" />
        </mxCell>
        <mxCell id="8AIeRsSoH0E0mP_s3LuW-30" value="" style="shape=module;jettyWidth=8;jettyHeight=4;" vertex="1" parent="8AIeRsSoH0E0mP_s3LuW-29">
          <mxGeometry x="1" width="20" height="20" relative="1" as="geometry">
            <mxPoint x="-27" y="7" as="offset" />
          </mxGeometry>
        </mxCell>
        <mxCell id="8AIeRsSoH0E0mP_s3LuW-31" value="«Data»&lt;br&gt;&lt;b&gt;VolontarioMgDB&lt;/b&gt;" style="html=1;dropTarget=0;whiteSpace=wrap;" vertex="1" parent="8AIeRsSoH0E0mP_s3LuW-178">
          <mxGeometry x="43.18181818181818" y="220" width="130.98772727272728" height="70" as="geometry" />
        </mxCell>
        <mxCell id="8AIeRsSoH0E0mP_s3LuW-32" value="" style="shape=module;jettyWidth=8;jettyHeight=4;" vertex="1" parent="8AIeRsSoH0E0mP_s3LuW-31">
          <mxGeometry x="1" width="20" height="20" relative="1" as="geometry">
            <mxPoint x="-27" y="7" as="offset" />
          </mxGeometry>
        </mxCell>
        <mxCell id="8AIeRsSoH0E0mP_s3LuW-33" value="«Data»&lt;br&gt;&lt;b&gt;Operatore118MgDB&lt;/b&gt;" style="html=1;dropTarget=0;whiteSpace=wrap;" vertex="1" parent="8AIeRsSoH0E0mP_s3LuW-178">
          <mxGeometry x="43.18181818181818" y="300" width="130.98772727272728" height="70" as="geometry" />
        </mxCell>
        <mxCell id="8AIeRsSoH0E0mP_s3LuW-34" value="" style="shape=module;jettyWidth=8;jettyHeight=4;" vertex="1" parent="8AIeRsSoH0E0mP_s3LuW-33">
          <mxGeometry x="1" width="20" height="20" relative="1" as="geometry">
            <mxPoint x="-27" y="7" as="offset" />
          </mxGeometry>
        </mxCell>
        <mxCell id="8AIeRsSoH0E0mP_s3LuW-35" value="«Data»&lt;br&gt;&lt;b&gt;OspedaleMgDB&lt;/b&gt;" style="html=1;dropTarget=0;whiteSpace=wrap;" vertex="1" parent="8AIeRsSoH0E0mP_s3LuW-178">
          <mxGeometry x="43.18181818181818" y="380" width="130.98772727272728" height="70" as="geometry" />
        </mxCell>
        <mxCell id="8AIeRsSoH0E0mP_s3LuW-36" value="" style="shape=module;jettyWidth=8;jettyHeight=4;" vertex="1" parent="8AIeRsSoH0E0mP_s3LuW-35">
          <mxGeometry x="1" width="20" height="20" relative="1" as="geometry">
            <mxPoint x="-27" y="7" as="offset" />
          </mxGeometry>
        </mxCell>
        <mxCell id="8AIeRsSoH0E0mP_s3LuW-37" value="«Data»&lt;br&gt;&lt;b&gt;SquadraMgDB&lt;/b&gt;" style="html=1;dropTarget=0;whiteSpace=wrap;" vertex="1" parent="8AIeRsSoH0E0mP_s3LuW-178">
          <mxGeometry x="43.18181818181818" y="460" width="130.98772727272728" height="70" as="geometry" />
        </mxCell>
        <mxCell id="8AIeRsSoH0E0mP_s3LuW-38" value="" style="shape=module;jettyWidth=8;jettyHeight=4;" vertex="1" parent="8AIeRsSoH0E0mP_s3LuW-37">
          <mxGeometry x="1" width="20" height="20" relative="1" as="geometry">
            <mxPoint x="-27" y="7" as="offset" />
          </mxGeometry>
        </mxCell>
        <mxCell id="8AIeRsSoH0E0mP_s3LuW-39" value="«Data»&lt;br&gt;&lt;b&gt;MezzoMgDB&lt;/b&gt;" style="html=1;dropTarget=0;whiteSpace=wrap;" vertex="1" parent="8AIeRsSoH0E0mP_s3LuW-178">
          <mxGeometry x="43.18181818181818" y="540" width="130.98772727272728" height="70" as="geometry" />
        </mxCell>
        <mxCell id="8AIeRsSoH0E0mP_s3LuW-40" value="" style="shape=module;jettyWidth=8;jettyHeight=4;" vertex="1" parent="8AIeRsSoH0E0mP_s3LuW-39">
          <mxGeometry x="1" width="20" height="20" relative="1" as="geometry">
            <mxPoint x="-27" y="7" as="offset" />
          </mxGeometry>
        </mxCell>
        <mxCell id="8AIeRsSoH0E0mP_s3LuW-41" value="«Data»&lt;br&gt;&lt;b&gt;PazienteMgDB&lt;/b&gt;" style="html=1;dropTarget=0;whiteSpace=wrap;" vertex="1" parent="8AIeRsSoH0E0mP_s3LuW-178">
          <mxGeometry x="43.18181818181818" y="620" width="130.98772727272728" height="70" as="geometry" />
        </mxCell>
        <mxCell id="8AIeRsSoH0E0mP_s3LuW-42" value="" style="shape=module;jettyWidth=8;jettyHeight=4;" vertex="1" parent="8AIeRsSoH0E0mP_s3LuW-41">
          <mxGeometry x="1" width="20" height="20" relative="1" as="geometry">
            <mxPoint x="-27" y="7" as="offset" />
          </mxGeometry>
        </mxCell>
        <mxCell id="8AIeRsSoH0E0mP_s3LuW-149" value="MODEL" style="text;html=1;align=center;verticalAlign=middle;whiteSpace=wrap;rounded=0;" vertex="1" parent="8AIeRsSoH0E0mP_s3LuW-178">
          <mxGeometry x="79.16666666666667" y="20" width="47.5" height="30" as="geometry" />
        </mxCell>
        <mxCell id="8AIeRsSoH0E0mP_s3LuW-179" value="" style="group" vertex="1" connectable="0" parent="1">
          <mxGeometry x="882" y="99" width="160" height="649" as="geometry" />
        </mxCell>
        <mxCell id="8AIeRsSoH0E0mP_s3LuW-7" value="" style="shape=folder;fontStyle=1;spacingTop=10;tabWidth=40;tabHeight=14;tabPosition=left;html=1;whiteSpace=wrap;" vertex="1" parent="8AIeRsSoH0E0mP_s3LuW-179">
          <mxGeometry x="38.09523809523809" width="121.9047619047619" height="649" as="geometry" />
        </mxCell>
        <mxCell id="8AIeRsSoH0E0mP_s3LuW-11" value="«Controller»&lt;br&gt;&lt;b&gt;Database&lt;/b&gt;" style="html=1;dropTarget=0;whiteSpace=wrap;" vertex="1" parent="8AIeRsSoH0E0mP_s3LuW-179">
          <mxGeometry x="49.52380952380951" y="46.35714285714286" width="99.04761904761902" height="584.1" as="geometry" />
        </mxCell>
        <mxCell id="8AIeRsSoH0E0mP_s3LuW-12" value="" style="shape=module;jettyWidth=8;jettyHeight=4;" vertex="1" parent="8AIeRsSoH0E0mP_s3LuW-11">
          <mxGeometry x="1" width="20" height="20" relative="1" as="geometry">
            <mxPoint x="-27" y="7" as="offset" />
          </mxGeometry>
        </mxCell>
        <mxCell id="8AIeRsSoH0E0mP_s3LuW-148" value="DATA" style="text;html=1;align=center;verticalAlign=middle;whiteSpace=wrap;rounded=0;" vertex="1" parent="8AIeRsSoH0E0mP_s3LuW-179">
          <mxGeometry x="53.33333333333332" y="18.542857142857144" width="45.71428571428571" height="27.814285714285713" as="geometry" />
        </mxCell>
        <mxCell id="8AIeRsSoH0E0mP_s3LuW-181" value="" style="group" vertex="1" connectable="0" parent="1">
          <mxGeometry x="789" y="119" width="130" height="40" as="geometry" />
        </mxCell>
        <mxCell id="8AIeRsSoH0E0mP_s3LuW-87" value="" style="group" vertex="1" connectable="0" parent="8AIeRsSoH0E0mP_s3LuW-181">
          <mxGeometry y="30" width="127.45098039215686" height="10" as="geometry" />
        </mxCell>
        <mxCell id="8AIeRsSoH0E0mP_s3LuW-78" value="" style="rounded=0;orthogonalLoop=1;jettySize=auto;html=1;endArrow=oval;endFill=0;sketch=0;sourcePerimeterSpacing=0;targetPerimeterSpacing=0;endSize=10;" edge="1" target="8AIeRsSoH0E0mP_s3LuW-79" parent="8AIeRsSoH0E0mP_s3LuW-87">
          <mxGeometry relative="1" as="geometry">
            <mxPoint x="127.45098039215686" y="5" as="sourcePoint" />
          </mxGeometry>
        </mxCell>
        <mxCell id="8AIeRsSoH0E0mP_s3LuW-79" value="" style="ellipse;whiteSpace=wrap;html=1;align=center;aspect=fixed;fillColor=none;strokeColor=none;resizable=0;perimeter=centerPerimeter;rotatable=0;allowArrows=0;points=[];outlineConnect=1;" vertex="1" parent="8AIeRsSoH0E0mP_s3LuW-87">
          <mxGeometry x="58.8235294117647" width="10" height="10" as="geometry" />
        </mxCell>
        <mxCell id="8AIeRsSoH0E0mP_s3LuW-83" value="" style="rounded=0;orthogonalLoop=1;jettySize=auto;html=1;endArrow=halfCircle;endFill=0;endSize=6;strokeWidth=1;sketch=0;" edge="1" parent="8AIeRsSoH0E0mP_s3LuW-87" target="8AIeRsSoH0E0mP_s3LuW-79">
          <mxGeometry relative="1" as="geometry">
            <mxPoint x="-16.99346405228758" y="5" as="sourcePoint" />
            <mxPoint x="69.0359477124183" y="5" as="targetPoint" />
          </mxGeometry>
        </mxCell>
        <mxCell id="8AIeRsSoH0E0mP_s3LuW-151" value="MySQLInterface" style="text;html=1;align=center;verticalAlign=middle;whiteSpace=wrap;rounded=0;" vertex="1" parent="8AIeRsSoH0E0mP_s3LuW-181">
          <mxGeometry x="29.73856209150327" width="50.980392156862735" height="30" as="geometry" />
        </mxCell>
        <mxCell id="8AIeRsSoH0E0mP_s3LuW-182" value="" style="group" vertex="1" connectable="0" parent="1">
          <mxGeometry x="789" y="279" width="130" height="40" as="geometry" />
        </mxCell>
        <mxCell id="8AIeRsSoH0E0mP_s3LuW-183" value="" style="group" vertex="1" connectable="0" parent="8AIeRsSoH0E0mP_s3LuW-182">
          <mxGeometry y="30" width="127.45098039215686" height="10" as="geometry" />
        </mxCell>
        <mxCell id="8AIeRsSoH0E0mP_s3LuW-184" value="" style="rounded=0;orthogonalLoop=1;jettySize=auto;html=1;endArrow=oval;endFill=0;sketch=0;sourcePerimeterSpacing=0;targetPerimeterSpacing=0;endSize=10;" edge="1" parent="8AIeRsSoH0E0mP_s3LuW-183" target="8AIeRsSoH0E0mP_s3LuW-185">
          <mxGeometry relative="1" as="geometry">
            <mxPoint x="127.45098039215686" y="5" as="sourcePoint" />
          </mxGeometry>
        </mxCell>
        <mxCell id="8AIeRsSoH0E0mP_s3LuW-185" value="" style="ellipse;whiteSpace=wrap;html=1;align=center;aspect=fixed;fillColor=none;strokeColor=none;resizable=0;perimeter=centerPerimeter;rotatable=0;allowArrows=0;points=[];outlineConnect=1;" vertex="1" parent="8AIeRsSoH0E0mP_s3LuW-183">
          <mxGeometry x="58.8235294117647" width="10" height="10" as="geometry" />
        </mxCell>
        <mxCell id="8AIeRsSoH0E0mP_s3LuW-186" value="" style="rounded=0;orthogonalLoop=1;jettySize=auto;html=1;endArrow=halfCircle;endFill=0;endSize=6;strokeWidth=1;sketch=0;" edge="1" parent="8AIeRsSoH0E0mP_s3LuW-183" target="8AIeRsSoH0E0mP_s3LuW-185">
          <mxGeometry relative="1" as="geometry">
            <mxPoint x="-16.99346405228758" y="5" as="sourcePoint" />
            <mxPoint x="69.0359477124183" y="5" as="targetPoint" />
          </mxGeometry>
        </mxCell>
        <mxCell id="8AIeRsSoH0E0mP_s3LuW-187" value="MySQLInterface" style="text;html=1;align=center;verticalAlign=middle;whiteSpace=wrap;rounded=0;" vertex="1" parent="8AIeRsSoH0E0mP_s3LuW-182">
          <mxGeometry x="29.73856209150327" width="50.980392156862735" height="30" as="geometry" />
        </mxCell>
        <mxCell id="8AIeRsSoH0E0mP_s3LuW-188" value="" style="group" vertex="1" connectable="0" parent="1">
          <mxGeometry x="789" y="359" width="130" height="40" as="geometry" />
        </mxCell>
        <mxCell id="8AIeRsSoH0E0mP_s3LuW-189" value="" style="group" vertex="1" connectable="0" parent="8AIeRsSoH0E0mP_s3LuW-188">
          <mxGeometry y="30" width="133.1577407082236" height="10" as="geometry" />
        </mxCell>
        <mxCell id="8AIeRsSoH0E0mP_s3LuW-190" value="" style="rounded=0;orthogonalLoop=1;jettySize=auto;html=1;endArrow=oval;endFill=0;sketch=0;sourcePerimeterSpacing=0;targetPerimeterSpacing=0;endSize=10;" edge="1" parent="8AIeRsSoH0E0mP_s3LuW-189" target="8AIeRsSoH0E0mP_s3LuW-191">
          <mxGeometry relative="1" as="geometry">
            <mxPoint x="133.1577407082236" y="5" as="sourcePoint" />
          </mxGeometry>
        </mxCell>
        <mxCell id="8AIeRsSoH0E0mP_s3LuW-191" value="" style="ellipse;whiteSpace=wrap;html=1;align=center;aspect=fixed;fillColor=none;strokeColor=none;resizable=0;perimeter=centerPerimeter;rotatable=0;allowArrows=0;points=[];outlineConnect=1;" vertex="1" parent="8AIeRsSoH0E0mP_s3LuW-189">
          <mxGeometry x="61.45741878841089" width="10" height="10" as="geometry" />
        </mxCell>
        <mxCell id="8AIeRsSoH0E0mP_s3LuW-192" value="" style="rounded=0;orthogonalLoop=1;jettySize=auto;html=1;endArrow=halfCircle;endFill=0;endSize=6;strokeWidth=1;sketch=0;" edge="1" parent="8AIeRsSoH0E0mP_s3LuW-189" target="8AIeRsSoH0E0mP_s3LuW-191">
          <mxGeometry relative="1" as="geometry">
            <mxPoint x="-17.754365427763148" y="5" as="sourcePoint" />
            <mxPoint x="72.12710955028778" y="5" as="targetPoint" />
          </mxGeometry>
        </mxCell>
        <mxCell id="8AIeRsSoH0E0mP_s3LuW-193" value="MySQLInterface" style="text;html=1;align=center;verticalAlign=middle;whiteSpace=wrap;rounded=0;" vertex="1" parent="8AIeRsSoH0E0mP_s3LuW-188">
          <mxGeometry x="31.070139498585505" width="53.26309628328943" height="30" as="geometry" />
        </mxCell>
        <mxCell id="8AIeRsSoH0E0mP_s3LuW-194" value="" style="group" vertex="1" connectable="0" parent="1">
          <mxGeometry x="789" y="439" width="130" height="40" as="geometry" />
        </mxCell>
        <mxCell id="8AIeRsSoH0E0mP_s3LuW-195" value="" style="group" vertex="1" connectable="0" parent="8AIeRsSoH0E0mP_s3LuW-194">
          <mxGeometry y="30" width="127.45098039215686" height="10" as="geometry" />
        </mxCell>
        <mxCell id="8AIeRsSoH0E0mP_s3LuW-196" value="" style="rounded=0;orthogonalLoop=1;jettySize=auto;html=1;endArrow=oval;endFill=0;sketch=0;sourcePerimeterSpacing=0;targetPerimeterSpacing=0;endSize=10;" edge="1" parent="8AIeRsSoH0E0mP_s3LuW-195" target="8AIeRsSoH0E0mP_s3LuW-197">
          <mxGeometry relative="1" as="geometry">
            <mxPoint x="127.45098039215686" y="5" as="sourcePoint" />
          </mxGeometry>
        </mxCell>
        <mxCell id="8AIeRsSoH0E0mP_s3LuW-197" value="" style="ellipse;whiteSpace=wrap;html=1;align=center;aspect=fixed;fillColor=none;strokeColor=none;resizable=0;perimeter=centerPerimeter;rotatable=0;allowArrows=0;points=[];outlineConnect=1;" vertex="1" parent="8AIeRsSoH0E0mP_s3LuW-195">
          <mxGeometry x="58.8235294117647" width="10" height="10" as="geometry" />
        </mxCell>
        <mxCell id="8AIeRsSoH0E0mP_s3LuW-198" value="" style="rounded=0;orthogonalLoop=1;jettySize=auto;html=1;endArrow=halfCircle;endFill=0;endSize=6;strokeWidth=1;sketch=0;" edge="1" parent="8AIeRsSoH0E0mP_s3LuW-195" target="8AIeRsSoH0E0mP_s3LuW-197">
          <mxGeometry relative="1" as="geometry">
            <mxPoint x="-16.99346405228758" y="5" as="sourcePoint" />
            <mxPoint x="69.0359477124183" y="5" as="targetPoint" />
          </mxGeometry>
        </mxCell>
        <mxCell id="8AIeRsSoH0E0mP_s3LuW-199" value="MySQLInterface" style="text;html=1;align=center;verticalAlign=middle;whiteSpace=wrap;rounded=0;" vertex="1" parent="8AIeRsSoH0E0mP_s3LuW-194">
          <mxGeometry x="29.73856209150327" width="50.980392156862735" height="30" as="geometry" />
        </mxCell>
        <mxCell id="8AIeRsSoH0E0mP_s3LuW-200" value="" style="group" vertex="1" connectable="0" parent="1">
          <mxGeometry x="789" y="519" width="130" height="40" as="geometry" />
        </mxCell>
        <mxCell id="8AIeRsSoH0E0mP_s3LuW-201" value="" style="group" vertex="1" connectable="0" parent="8AIeRsSoH0E0mP_s3LuW-200">
          <mxGeometry y="30" width="127.45098039215686" height="10" as="geometry" />
        </mxCell>
        <mxCell id="8AIeRsSoH0E0mP_s3LuW-202" value="" style="rounded=0;orthogonalLoop=1;jettySize=auto;html=1;endArrow=oval;endFill=0;sketch=0;sourcePerimeterSpacing=0;targetPerimeterSpacing=0;endSize=10;" edge="1" parent="8AIeRsSoH0E0mP_s3LuW-201" target="8AIeRsSoH0E0mP_s3LuW-203">
          <mxGeometry relative="1" as="geometry">
            <mxPoint x="127.45098039215686" y="5" as="sourcePoint" />
          </mxGeometry>
        </mxCell>
        <mxCell id="8AIeRsSoH0E0mP_s3LuW-203" value="" style="ellipse;whiteSpace=wrap;html=1;align=center;aspect=fixed;fillColor=none;strokeColor=none;resizable=0;perimeter=centerPerimeter;rotatable=0;allowArrows=0;points=[];outlineConnect=1;" vertex="1" parent="8AIeRsSoH0E0mP_s3LuW-201">
          <mxGeometry x="58.8235294117647" width="10" height="10" as="geometry" />
        </mxCell>
        <mxCell id="8AIeRsSoH0E0mP_s3LuW-204" value="" style="rounded=0;orthogonalLoop=1;jettySize=auto;html=1;endArrow=halfCircle;endFill=0;endSize=6;strokeWidth=1;sketch=0;" edge="1" parent="8AIeRsSoH0E0mP_s3LuW-201" target="8AIeRsSoH0E0mP_s3LuW-203">
          <mxGeometry relative="1" as="geometry">
            <mxPoint x="-16.99346405228758" y="5" as="sourcePoint" />
            <mxPoint x="69.0359477124183" y="5" as="targetPoint" />
          </mxGeometry>
        </mxCell>
        <mxCell id="8AIeRsSoH0E0mP_s3LuW-205" value="MySQLInterface" style="text;html=1;align=center;verticalAlign=middle;whiteSpace=wrap;rounded=0;" vertex="1" parent="8AIeRsSoH0E0mP_s3LuW-200">
          <mxGeometry x="29.73856209150327" width="50.980392156862735" height="30" as="geometry" />
        </mxCell>
        <mxCell id="8AIeRsSoH0E0mP_s3LuW-206" value="" style="group" vertex="1" connectable="0" parent="1">
          <mxGeometry x="789" y="599" width="130" height="40" as="geometry" />
        </mxCell>
        <mxCell id="8AIeRsSoH0E0mP_s3LuW-207" value="" style="group" vertex="1" connectable="0" parent="8AIeRsSoH0E0mP_s3LuW-206">
          <mxGeometry y="30" width="127.45098039215686" height="10" as="geometry" />
        </mxCell>
        <mxCell id="8AIeRsSoH0E0mP_s3LuW-208" value="" style="rounded=0;orthogonalLoop=1;jettySize=auto;html=1;endArrow=oval;endFill=0;sketch=0;sourcePerimeterSpacing=0;targetPerimeterSpacing=0;endSize=10;" edge="1" parent="8AIeRsSoH0E0mP_s3LuW-207" target="8AIeRsSoH0E0mP_s3LuW-209">
          <mxGeometry relative="1" as="geometry">
            <mxPoint x="127.45098039215686" y="5" as="sourcePoint" />
          </mxGeometry>
        </mxCell>
        <mxCell id="8AIeRsSoH0E0mP_s3LuW-209" value="" style="ellipse;whiteSpace=wrap;html=1;align=center;aspect=fixed;fillColor=none;strokeColor=none;resizable=0;perimeter=centerPerimeter;rotatable=0;allowArrows=0;points=[];outlineConnect=1;" vertex="1" parent="8AIeRsSoH0E0mP_s3LuW-207">
          <mxGeometry x="58.8235294117647" width="10" height="10" as="geometry" />
        </mxCell>
        <mxCell id="8AIeRsSoH0E0mP_s3LuW-210" value="" style="rounded=0;orthogonalLoop=1;jettySize=auto;html=1;endArrow=halfCircle;endFill=0;endSize=6;strokeWidth=1;sketch=0;" edge="1" parent="8AIeRsSoH0E0mP_s3LuW-207" target="8AIeRsSoH0E0mP_s3LuW-209">
          <mxGeometry relative="1" as="geometry">
            <mxPoint x="-16.99346405228758" y="5" as="sourcePoint" />
            <mxPoint x="69.0359477124183" y="5" as="targetPoint" />
          </mxGeometry>
        </mxCell>
        <mxCell id="8AIeRsSoH0E0mP_s3LuW-211" value="MySQLInterface" style="text;html=1;align=center;verticalAlign=middle;whiteSpace=wrap;rounded=0;" vertex="1" parent="8AIeRsSoH0E0mP_s3LuW-206">
          <mxGeometry x="29.73856209150327" width="50.980392156862735" height="30" as="geometry" />
        </mxCell>
        <mxCell id="8AIeRsSoH0E0mP_s3LuW-212" value="" style="group" vertex="1" connectable="0" parent="1">
          <mxGeometry x="789" y="669" width="130" height="40" as="geometry" />
        </mxCell>
        <mxCell id="8AIeRsSoH0E0mP_s3LuW-213" value="" style="group" vertex="1" connectable="0" parent="8AIeRsSoH0E0mP_s3LuW-212">
          <mxGeometry y="30" width="127.45098039215686" height="10" as="geometry" />
        </mxCell>
        <mxCell id="8AIeRsSoH0E0mP_s3LuW-214" value="" style="rounded=0;orthogonalLoop=1;jettySize=auto;html=1;endArrow=oval;endFill=0;sketch=0;sourcePerimeterSpacing=0;targetPerimeterSpacing=0;endSize=10;" edge="1" parent="8AIeRsSoH0E0mP_s3LuW-213" target="8AIeRsSoH0E0mP_s3LuW-215">
          <mxGeometry relative="1" as="geometry">
            <mxPoint x="127.45098039215686" y="5" as="sourcePoint" />
          </mxGeometry>
        </mxCell>
        <mxCell id="8AIeRsSoH0E0mP_s3LuW-215" value="" style="ellipse;whiteSpace=wrap;html=1;align=center;aspect=fixed;fillColor=none;strokeColor=none;resizable=0;perimeter=centerPerimeter;rotatable=0;allowArrows=0;points=[];outlineConnect=1;" vertex="1" parent="8AIeRsSoH0E0mP_s3LuW-213">
          <mxGeometry x="58.8235294117647" width="10" height="10" as="geometry" />
        </mxCell>
        <mxCell id="8AIeRsSoH0E0mP_s3LuW-216" value="" style="rounded=0;orthogonalLoop=1;jettySize=auto;html=1;endArrow=halfCircle;endFill=0;endSize=6;strokeWidth=1;sketch=0;" edge="1" parent="8AIeRsSoH0E0mP_s3LuW-213" target="8AIeRsSoH0E0mP_s3LuW-215">
          <mxGeometry relative="1" as="geometry">
            <mxPoint x="-16.99346405228758" y="5" as="sourcePoint" />
            <mxPoint x="69.0359477124183" y="5" as="targetPoint" />
          </mxGeometry>
        </mxCell>
        <mxCell id="8AIeRsSoH0E0mP_s3LuW-217" value="MySQLInterface" style="text;html=1;align=center;verticalAlign=middle;whiteSpace=wrap;rounded=0;" vertex="1" parent="8AIeRsSoH0E0mP_s3LuW-212">
          <mxGeometry x="29.73856209150327" width="50.980392156862735" height="30" as="geometry" />
        </mxCell>
        <mxCell id="8AIeRsSoH0E0mP_s3LuW-218" value="" style="group" vertex="1" connectable="0" parent="1">
          <mxGeometry x="789" y="199" width="130" height="40" as="geometry" />
        </mxCell>
        <mxCell id="8AIeRsSoH0E0mP_s3LuW-219" value="" style="group" vertex="1" connectable="0" parent="8AIeRsSoH0E0mP_s3LuW-218">
          <mxGeometry y="30" width="127.45098039215686" height="10" as="geometry" />
        </mxCell>
        <mxCell id="8AIeRsSoH0E0mP_s3LuW-220" value="" style="rounded=0;orthogonalLoop=1;jettySize=auto;html=1;endArrow=oval;endFill=0;sketch=0;sourcePerimeterSpacing=0;targetPerimeterSpacing=0;endSize=10;" edge="1" parent="8AIeRsSoH0E0mP_s3LuW-219" target="8AIeRsSoH0E0mP_s3LuW-221">
          <mxGeometry relative="1" as="geometry">
            <mxPoint x="127.45098039215686" y="5" as="sourcePoint" />
          </mxGeometry>
        </mxCell>
        <mxCell id="8AIeRsSoH0E0mP_s3LuW-221" value="" style="ellipse;whiteSpace=wrap;html=1;align=center;aspect=fixed;fillColor=none;strokeColor=none;resizable=0;perimeter=centerPerimeter;rotatable=0;allowArrows=0;points=[];outlineConnect=1;" vertex="1" parent="8AIeRsSoH0E0mP_s3LuW-219">
          <mxGeometry x="58.8235294117647" width="10" height="10" as="geometry" />
        </mxCell>
        <mxCell id="8AIeRsSoH0E0mP_s3LuW-222" value="" style="rounded=0;orthogonalLoop=1;jettySize=auto;html=1;endArrow=halfCircle;endFill=0;endSize=6;strokeWidth=1;sketch=0;" edge="1" parent="8AIeRsSoH0E0mP_s3LuW-219" target="8AIeRsSoH0E0mP_s3LuW-221">
          <mxGeometry relative="1" as="geometry">
            <mxPoint x="-16.99346405228758" y="5" as="sourcePoint" />
            <mxPoint x="69.0359477124183" y="5" as="targetPoint" />
          </mxGeometry>
        </mxCell>
        <mxCell id="8AIeRsSoH0E0mP_s3LuW-223" value="MySQLInterface" style="text;html=1;align=center;verticalAlign=middle;whiteSpace=wrap;rounded=0;" vertex="1" parent="8AIeRsSoH0E0mP_s3LuW-218">
          <mxGeometry x="29.73856209150327" width="50.980392156862735" height="30" as="geometry" />
        </mxCell>
        <mxCell id="8AIeRsSoH0E0mP_s3LuW-60" value="" style="shape=folder;fontStyle=1;spacingTop=10;tabWidth=40;tabHeight=14;tabPosition=left;html=1;whiteSpace=wrap;" vertex="1" parent="1">
          <mxGeometry x="290" y="60" width="180" height="710" as="geometry" />
        </mxCell>
        <mxCell id="8AIeRsSoH0E0mP_s3LuW-61" value="«Control»&lt;br&gt;&lt;b&gt;AatMgBE&lt;/b&gt;" style="html=1;dropTarget=0;whiteSpace=wrap;" vertex="1" parent="1">
          <mxGeometry x="300" y="120" width="150" height="70" as="geometry" />
        </mxCell>
        <mxCell id="8AIeRsSoH0E0mP_s3LuW-62" value="" style="shape=module;jettyWidth=8;jettyHeight=4;" vertex="1" parent="8AIeRsSoH0E0mP_s3LuW-61">
          <mxGeometry x="1" width="20" height="20" relative="1" as="geometry">
            <mxPoint x="-27" y="7" as="offset" />
          </mxGeometry>
        </mxCell>
        <mxCell id="8AIeRsSoH0E0mP_s3LuW-63" value="«Control»&lt;br&gt;&lt;b&gt;EmergenzaMgBE&lt;/b&gt;" style="html=1;dropTarget=0;whiteSpace=wrap;" vertex="1" parent="1">
          <mxGeometry x="300" y="200" width="150" height="70" as="geometry" />
        </mxCell>
        <mxCell id="8AIeRsSoH0E0mP_s3LuW-64" value="" style="shape=module;jettyWidth=8;jettyHeight=4;" vertex="1" parent="8AIeRsSoH0E0mP_s3LuW-63">
          <mxGeometry x="1" width="20" height="20" relative="1" as="geometry">
            <mxPoint x="-27" y="7" as="offset" />
          </mxGeometry>
        </mxCell>
        <mxCell id="8AIeRsSoH0E0mP_s3LuW-65" value="«Control»&lt;br&gt;&lt;b&gt;VolontarioMgBE&lt;/b&gt;" style="html=1;dropTarget=0;whiteSpace=wrap;" vertex="1" parent="1">
          <mxGeometry x="300" y="280" width="150" height="70" as="geometry" />
        </mxCell>
        <mxCell id="8AIeRsSoH0E0mP_s3LuW-66" value="" style="shape=module;jettyWidth=8;jettyHeight=4;" vertex="1" parent="8AIeRsSoH0E0mP_s3LuW-65">
          <mxGeometry x="1" width="20" height="20" relative="1" as="geometry">
            <mxPoint x="-27" y="7" as="offset" />
          </mxGeometry>
        </mxCell>
        <mxCell id="8AIeRsSoH0E0mP_s3LuW-67" value="«Control»&lt;br&gt;&lt;b&gt;Operatore118MgBE&lt;/b&gt;" style="html=1;dropTarget=0;whiteSpace=wrap;" vertex="1" parent="1">
          <mxGeometry x="300" y="360" width="150" height="70" as="geometry" />
        </mxCell>
        <mxCell id="8AIeRsSoH0E0mP_s3LuW-68" value="" style="shape=module;jettyWidth=8;jettyHeight=4;" vertex="1" parent="8AIeRsSoH0E0mP_s3LuW-67">
          <mxGeometry x="1" width="20" height="20" relative="1" as="geometry">
            <mxPoint x="-27" y="7" as="offset" />
          </mxGeometry>
        </mxCell>
        <mxCell id="8AIeRsSoH0E0mP_s3LuW-69" value="«Control»&lt;br&gt;&lt;b&gt;OspedaleMgBE&lt;/b&gt;" style="html=1;dropTarget=0;whiteSpace=wrap;" vertex="1" parent="1">
          <mxGeometry x="300" y="440" width="150" height="70" as="geometry" />
        </mxCell>
        <mxCell id="8AIeRsSoH0E0mP_s3LuW-70" value="" style="shape=module;jettyWidth=8;jettyHeight=4;" vertex="1" parent="8AIeRsSoH0E0mP_s3LuW-69">
          <mxGeometry x="1" width="20" height="20" relative="1" as="geometry">
            <mxPoint x="-27" y="7" as="offset" />
          </mxGeometry>
        </mxCell>
        <mxCell id="8AIeRsSoH0E0mP_s3LuW-71" value="«Control»&lt;br&gt;&lt;b&gt;SquadraMgBE&lt;/b&gt;" style="html=1;dropTarget=0;whiteSpace=wrap;" vertex="1" parent="1">
          <mxGeometry x="300" y="520" width="150" height="70" as="geometry" />
        </mxCell>
        <mxCell id="8AIeRsSoH0E0mP_s3LuW-72" value="" style="shape=module;jettyWidth=8;jettyHeight=4;" vertex="1" parent="8AIeRsSoH0E0mP_s3LuW-71">
          <mxGeometry x="1" width="20" height="20" relative="1" as="geometry">
            <mxPoint x="-27" y="7" as="offset" />
          </mxGeometry>
        </mxCell>
        <mxCell id="8AIeRsSoH0E0mP_s3LuW-73" value="«Control»&lt;br&gt;&lt;b&gt;MezzoMgBE&lt;/b&gt;" style="html=1;dropTarget=0;whiteSpace=wrap;" vertex="1" parent="1">
          <mxGeometry x="300" y="600" width="150" height="70" as="geometry" />
        </mxCell>
        <mxCell id="8AIeRsSoH0E0mP_s3LuW-74" value="" style="shape=module;jettyWidth=8;jettyHeight=4;" vertex="1" parent="8AIeRsSoH0E0mP_s3LuW-73">
          <mxGeometry x="1" width="20" height="20" relative="1" as="geometry">
            <mxPoint x="-27" y="7" as="offset" />
          </mxGeometry>
        </mxCell>
        <mxCell id="8AIeRsSoH0E0mP_s3LuW-75" value="«Control»&lt;br&gt;&lt;b&gt;PazienteMgBE&lt;/b&gt;" style="html=1;dropTarget=0;whiteSpace=wrap;" vertex="1" parent="1">
          <mxGeometry x="300" y="680" width="150" height="70" as="geometry" />
        </mxCell>
        <mxCell id="8AIeRsSoH0E0mP_s3LuW-76" value="" style="shape=module;jettyWidth=8;jettyHeight=4;" vertex="1" parent="8AIeRsSoH0E0mP_s3LuW-75">
          <mxGeometry x="1" width="20" height="20" relative="1" as="geometry">
            <mxPoint x="-27" y="7" as="offset" />
          </mxGeometry>
        </mxCell>
        <mxCell id="8AIeRsSoH0E0mP_s3LuW-150" value="PRESENTER" style="text;html=1;align=center;verticalAlign=middle;whiteSpace=wrap;rounded=0;" vertex="1" parent="1">
          <mxGeometry x="330" y="80" width="60" height="30" as="geometry" />
        </mxCell>
        <mxCell id="8AIeRsSoH0E0mP_s3LuW-225" value="" style="group" vertex="1" connectable="0" parent="1">
          <mxGeometry x="80" y="120" width="70" height="630" as="geometry" />
        </mxCell>
        <mxCell id="8AIeRsSoH0E0mP_s3LuW-180" value="" style="shape=folder;fontStyle=1;spacingTop=10;tabWidth=40;tabHeight=14;tabPosition=left;html=1;whiteSpace=wrap;" vertex="1" parent="8AIeRsSoH0E0mP_s3LuW-225">
          <mxGeometry width="70" height="630" as="geometry" />
        </mxCell>
        <mxCell id="8AIeRsSoH0E0mP_s3LuW-224" value="VIEW" style="text;html=1;align=center;verticalAlign=middle;whiteSpace=wrap;rounded=0;" vertex="1" parent="8AIeRsSoH0E0mP_s3LuW-225">
          <mxGeometry x="11.666666666666668" y="17.5" width="46.66666666666667" height="26.25" as="geometry" />
        </mxCell>
        <mxCell id="8AIeRsSoH0E0mP_s3LuW-328" value="&lt;font style=&quot;font-size: 9px;&quot;&gt;&lt;b&gt;NOT YET IMPLEMENTED&lt;/b&gt;&lt;/font&gt;" style="text;html=1;align=center;verticalAlign=middle;whiteSpace=wrap;rounded=0;" vertex="1" parent="8AIeRsSoH0E0mP_s3LuW-225">
          <mxGeometry x="17.5" y="79.85915492957746" width="35" height="505.77464788732397" as="geometry" />
        </mxCell>
        <mxCell id="8AIeRsSoH0E0mP_s3LuW-226" value="" style="group" vertex="1" connectable="0" parent="1">
          <mxGeometry x="486" y="125" width="100" height="40" as="geometry" />
        </mxCell>
        <mxCell id="8AIeRsSoH0E0mP_s3LuW-227" value="" style="group" vertex="1" connectable="0" parent="8AIeRsSoH0E0mP_s3LuW-226">
          <mxGeometry y="30" width="113.43380327337545" height="10" as="geometry" />
        </mxCell>
        <mxCell id="8AIeRsSoH0E0mP_s3LuW-228" value="" style="rounded=0;orthogonalLoop=1;jettySize=auto;html=1;endArrow=oval;endFill=0;sketch=0;sourcePerimeterSpacing=0;targetPerimeterSpacing=0;endSize=10;" edge="1" parent="8AIeRsSoH0E0mP_s3LuW-227" target="8AIeRsSoH0E0mP_s3LuW-229">
          <mxGeometry relative="1" as="geometry">
            <mxPoint x="113.43380327337545" y="5" as="sourcePoint" />
          </mxGeometry>
        </mxCell>
        <mxCell id="8AIeRsSoH0E0mP_s3LuW-229" value="" style="ellipse;whiteSpace=wrap;html=1;align=center;aspect=fixed;fillColor=none;strokeColor=none;resizable=0;perimeter=centerPerimeter;rotatable=0;allowArrows=0;points=[];outlineConnect=1;" vertex="1" parent="8AIeRsSoH0E0mP_s3LuW-227">
          <mxGeometry x="52.354063049250215" width="10" height="10" as="geometry" />
        </mxCell>
        <mxCell id="8AIeRsSoH0E0mP_s3LuW-230" value="" style="rounded=0;orthogonalLoop=1;jettySize=auto;html=1;endArrow=halfCircle;endFill=0;endSize=6;strokeWidth=1;sketch=0;" edge="1" parent="8AIeRsSoH0E0mP_s3LuW-227" target="8AIeRsSoH0E0mP_s3LuW-229">
          <mxGeometry relative="1" as="geometry">
            <mxPoint x="-15.124507103116729" y="5" as="sourcePoint" />
            <mxPoint x="61.44331010641171" y="5" as="targetPoint" />
          </mxGeometry>
        </mxCell>
        <mxCell id="8AIeRsSoH0E0mP_s3LuW-231" value="&lt;div&gt;AatDataMg&lt;/div&gt;" style="text;html=1;align=center;verticalAlign=middle;whiteSpace=wrap;rounded=0;" vertex="1" parent="8AIeRsSoH0E0mP_s3LuW-226">
          <mxGeometry x="26.467887430454276" width="45.373521309350174" height="30" as="geometry" />
        </mxCell>
        <mxCell id="8AIeRsSoH0E0mP_s3LuW-232" value="" style="group" vertex="1" connectable="0" parent="1">
          <mxGeometry x="165" y="124" width="100" height="40" as="geometry" />
        </mxCell>
        <mxCell id="8AIeRsSoH0E0mP_s3LuW-233" value="" style="group" vertex="1" connectable="0" parent="8AIeRsSoH0E0mP_s3LuW-232">
          <mxGeometry y="30" width="113.43380327337545" height="10" as="geometry" />
        </mxCell>
        <mxCell id="8AIeRsSoH0E0mP_s3LuW-234" value="" style="rounded=0;orthogonalLoop=1;jettySize=auto;html=1;endArrow=oval;endFill=0;sketch=0;sourcePerimeterSpacing=0;targetPerimeterSpacing=0;endSize=10;" edge="1" parent="8AIeRsSoH0E0mP_s3LuW-233" target="8AIeRsSoH0E0mP_s3LuW-235">
          <mxGeometry relative="1" as="geometry">
            <mxPoint x="113.43380327337545" y="5" as="sourcePoint" />
          </mxGeometry>
        </mxCell>
        <mxCell id="8AIeRsSoH0E0mP_s3LuW-235" value="" style="ellipse;whiteSpace=wrap;html=1;align=center;aspect=fixed;fillColor=none;strokeColor=none;resizable=0;perimeter=centerPerimeter;rotatable=0;allowArrows=0;points=[];outlineConnect=1;" vertex="1" parent="8AIeRsSoH0E0mP_s3LuW-233">
          <mxGeometry x="52.354063049250215" width="10" height="10" as="geometry" />
        </mxCell>
        <mxCell id="8AIeRsSoH0E0mP_s3LuW-236" value="" style="rounded=0;orthogonalLoop=1;jettySize=auto;html=1;endArrow=halfCircle;endFill=0;endSize=6;strokeWidth=1;sketch=0;" edge="1" parent="8AIeRsSoH0E0mP_s3LuW-233" target="8AIeRsSoH0E0mP_s3LuW-235">
          <mxGeometry relative="1" as="geometry">
            <mxPoint x="-15.124507103116729" y="5" as="sourcePoint" />
            <mxPoint x="61.44331010641171" y="5" as="targetPoint" />
          </mxGeometry>
        </mxCell>
        <mxCell id="8AIeRsSoH0E0mP_s3LuW-237" value="AatMg" style="text;html=1;align=center;verticalAlign=middle;whiteSpace=wrap;rounded=0;" vertex="1" parent="8AIeRsSoH0E0mP_s3LuW-232">
          <mxGeometry x="26.467887430454276" width="45.373521309350174" height="30" as="geometry" />
        </mxCell>
        <mxCell id="8AIeRsSoH0E0mP_s3LuW-244" value="" style="group" vertex="1" connectable="0" parent="1">
          <mxGeometry x="486" y="204" width="100" height="40" as="geometry" />
        </mxCell>
        <mxCell id="8AIeRsSoH0E0mP_s3LuW-245" value="" style="group" vertex="1" connectable="0" parent="8AIeRsSoH0E0mP_s3LuW-244">
          <mxGeometry y="30" width="113.43380327337545" height="10" as="geometry" />
        </mxCell>
        <mxCell id="8AIeRsSoH0E0mP_s3LuW-246" value="" style="rounded=0;orthogonalLoop=1;jettySize=auto;html=1;endArrow=oval;endFill=0;sketch=0;sourcePerimeterSpacing=0;targetPerimeterSpacing=0;endSize=10;" edge="1" parent="8AIeRsSoH0E0mP_s3LuW-245" target="8AIeRsSoH0E0mP_s3LuW-247">
          <mxGeometry relative="1" as="geometry">
            <mxPoint x="113.43380327337545" y="5" as="sourcePoint" />
          </mxGeometry>
        </mxCell>
        <mxCell id="8AIeRsSoH0E0mP_s3LuW-247" value="" style="ellipse;whiteSpace=wrap;html=1;align=center;aspect=fixed;fillColor=none;strokeColor=none;resizable=0;perimeter=centerPerimeter;rotatable=0;allowArrows=0;points=[];outlineConnect=1;" vertex="1" parent="8AIeRsSoH0E0mP_s3LuW-245">
          <mxGeometry x="52.354063049250215" width="10" height="10" as="geometry" />
        </mxCell>
        <mxCell id="8AIeRsSoH0E0mP_s3LuW-248" value="" style="rounded=0;orthogonalLoop=1;jettySize=auto;html=1;endArrow=halfCircle;endFill=0;endSize=6;strokeWidth=1;sketch=0;" edge="1" parent="8AIeRsSoH0E0mP_s3LuW-245" target="8AIeRsSoH0E0mP_s3LuW-247">
          <mxGeometry relative="1" as="geometry">
            <mxPoint x="-15.124507103116729" y="5" as="sourcePoint" />
            <mxPoint x="61.44331010641171" y="5" as="targetPoint" />
          </mxGeometry>
        </mxCell>
        <mxCell id="8AIeRsSoH0E0mP_s3LuW-249" value="&lt;div&gt;EmergenzaDataMg&lt;/div&gt;" style="text;html=1;align=center;verticalAlign=middle;whiteSpace=wrap;rounded=0;" vertex="1" parent="8AIeRsSoH0E0mP_s3LuW-244">
          <mxGeometry x="26.467887430454276" width="45.373521309350174" height="30" as="geometry" />
        </mxCell>
        <mxCell id="8AIeRsSoH0E0mP_s3LuW-250" value="" style="group" vertex="1" connectable="0" parent="1">
          <mxGeometry x="487" y="285" width="100" height="40" as="geometry" />
        </mxCell>
        <mxCell id="8AIeRsSoH0E0mP_s3LuW-251" value="" style="group" vertex="1" connectable="0" parent="8AIeRsSoH0E0mP_s3LuW-250">
          <mxGeometry y="30" width="113.43380327337545" height="10" as="geometry" />
        </mxCell>
        <mxCell id="8AIeRsSoH0E0mP_s3LuW-252" value="" style="rounded=0;orthogonalLoop=1;jettySize=auto;html=1;endArrow=oval;endFill=0;sketch=0;sourcePerimeterSpacing=0;targetPerimeterSpacing=0;endSize=10;" edge="1" parent="8AIeRsSoH0E0mP_s3LuW-251" target="8AIeRsSoH0E0mP_s3LuW-253">
          <mxGeometry relative="1" as="geometry">
            <mxPoint x="113.43380327337545" y="5" as="sourcePoint" />
          </mxGeometry>
        </mxCell>
        <mxCell id="8AIeRsSoH0E0mP_s3LuW-253" value="" style="ellipse;whiteSpace=wrap;html=1;align=center;aspect=fixed;fillColor=none;strokeColor=none;resizable=0;perimeter=centerPerimeter;rotatable=0;allowArrows=0;points=[];outlineConnect=1;" vertex="1" parent="8AIeRsSoH0E0mP_s3LuW-251">
          <mxGeometry x="52.354063049250215" width="10" height="10" as="geometry" />
        </mxCell>
        <mxCell id="8AIeRsSoH0E0mP_s3LuW-254" value="" style="rounded=0;orthogonalLoop=1;jettySize=auto;html=1;endArrow=halfCircle;endFill=0;endSize=6;strokeWidth=1;sketch=0;" edge="1" parent="8AIeRsSoH0E0mP_s3LuW-251" target="8AIeRsSoH0E0mP_s3LuW-253">
          <mxGeometry relative="1" as="geometry">
            <mxPoint x="-15.124507103116729" y="5" as="sourcePoint" />
            <mxPoint x="61.44331010641171" y="5" as="targetPoint" />
          </mxGeometry>
        </mxCell>
        <mxCell id="8AIeRsSoH0E0mP_s3LuW-255" value="&lt;div&gt;VolontarioDataMg&lt;/div&gt;" style="text;html=1;align=center;verticalAlign=middle;whiteSpace=wrap;rounded=0;" vertex="1" parent="8AIeRsSoH0E0mP_s3LuW-250">
          <mxGeometry x="26.467887430454276" width="45.373521309350174" height="30" as="geometry" />
        </mxCell>
        <mxCell id="8AIeRsSoH0E0mP_s3LuW-256" value="" style="group" vertex="1" connectable="0" parent="1">
          <mxGeometry x="486" y="364" width="100" height="40" as="geometry" />
        </mxCell>
        <mxCell id="8AIeRsSoH0E0mP_s3LuW-257" value="" style="group" vertex="1" connectable="0" parent="8AIeRsSoH0E0mP_s3LuW-256">
          <mxGeometry y="30" width="113.43380327337545" height="10" as="geometry" />
        </mxCell>
        <mxCell id="8AIeRsSoH0E0mP_s3LuW-258" value="" style="rounded=0;orthogonalLoop=1;jettySize=auto;html=1;endArrow=oval;endFill=0;sketch=0;sourcePerimeterSpacing=0;targetPerimeterSpacing=0;endSize=10;" edge="1" parent="8AIeRsSoH0E0mP_s3LuW-257" target="8AIeRsSoH0E0mP_s3LuW-259">
          <mxGeometry relative="1" as="geometry">
            <mxPoint x="113.43380327337545" y="5" as="sourcePoint" />
          </mxGeometry>
        </mxCell>
        <mxCell id="8AIeRsSoH0E0mP_s3LuW-259" value="" style="ellipse;whiteSpace=wrap;html=1;align=center;aspect=fixed;fillColor=none;strokeColor=none;resizable=0;perimeter=centerPerimeter;rotatable=0;allowArrows=0;points=[];outlineConnect=1;" vertex="1" parent="8AIeRsSoH0E0mP_s3LuW-257">
          <mxGeometry x="52.354063049250215" width="10" height="10" as="geometry" />
        </mxCell>
        <mxCell id="8AIeRsSoH0E0mP_s3LuW-260" value="" style="rounded=0;orthogonalLoop=1;jettySize=auto;html=1;endArrow=halfCircle;endFill=0;endSize=6;strokeWidth=1;sketch=0;" edge="1" parent="8AIeRsSoH0E0mP_s3LuW-257" target="8AIeRsSoH0E0mP_s3LuW-259">
          <mxGeometry relative="1" as="geometry">
            <mxPoint x="-15.124507103116729" y="5" as="sourcePoint" />
            <mxPoint x="61.44331010641171" y="5" as="targetPoint" />
          </mxGeometry>
        </mxCell>
        <mxCell id="8AIeRsSoH0E0mP_s3LuW-261" value="&lt;div&gt;Operatore118DataMg&lt;/div&gt;" style="text;html=1;align=center;verticalAlign=middle;whiteSpace=wrap;rounded=0;" vertex="1" parent="8AIeRsSoH0E0mP_s3LuW-256">
          <mxGeometry x="26.467887430454276" width="45.373521309350174" height="30" as="geometry" />
        </mxCell>
        <mxCell id="8AIeRsSoH0E0mP_s3LuW-262" value="" style="group" vertex="1" connectable="0" parent="1">
          <mxGeometry x="486" y="445" width="100" height="40" as="geometry" />
        </mxCell>
        <mxCell id="8AIeRsSoH0E0mP_s3LuW-263" value="" style="group" vertex="1" connectable="0" parent="8AIeRsSoH0E0mP_s3LuW-262">
          <mxGeometry y="30" width="113.43380327337545" height="10" as="geometry" />
        </mxCell>
        <mxCell id="8AIeRsSoH0E0mP_s3LuW-264" value="" style="rounded=0;orthogonalLoop=1;jettySize=auto;html=1;endArrow=oval;endFill=0;sketch=0;sourcePerimeterSpacing=0;targetPerimeterSpacing=0;endSize=10;" edge="1" parent="8AIeRsSoH0E0mP_s3LuW-263" target="8AIeRsSoH0E0mP_s3LuW-265">
          <mxGeometry relative="1" as="geometry">
            <mxPoint x="113.43380327337545" y="5" as="sourcePoint" />
          </mxGeometry>
        </mxCell>
        <mxCell id="8AIeRsSoH0E0mP_s3LuW-265" value="" style="ellipse;whiteSpace=wrap;html=1;align=center;aspect=fixed;fillColor=none;strokeColor=none;resizable=0;perimeter=centerPerimeter;rotatable=0;allowArrows=0;points=[];outlineConnect=1;" vertex="1" parent="8AIeRsSoH0E0mP_s3LuW-263">
          <mxGeometry x="52.354063049250215" width="10" height="10" as="geometry" />
        </mxCell>
        <mxCell id="8AIeRsSoH0E0mP_s3LuW-266" value="" style="rounded=0;orthogonalLoop=1;jettySize=auto;html=1;endArrow=halfCircle;endFill=0;endSize=6;strokeWidth=1;sketch=0;" edge="1" parent="8AIeRsSoH0E0mP_s3LuW-263" target="8AIeRsSoH0E0mP_s3LuW-265">
          <mxGeometry relative="1" as="geometry">
            <mxPoint x="-15.124507103116729" y="5" as="sourcePoint" />
            <mxPoint x="61.44331010641171" y="5" as="targetPoint" />
          </mxGeometry>
        </mxCell>
        <mxCell id="8AIeRsSoH0E0mP_s3LuW-267" value="&lt;div&gt;OspedaleDataMg&lt;/div&gt;" style="text;html=1;align=center;verticalAlign=middle;whiteSpace=wrap;rounded=0;" vertex="1" parent="8AIeRsSoH0E0mP_s3LuW-262">
          <mxGeometry x="26.467887430454276" width="45.373521309350174" height="30" as="geometry" />
        </mxCell>
        <mxCell id="8AIeRsSoH0E0mP_s3LuW-268" value="" style="group" vertex="1" connectable="0" parent="1">
          <mxGeometry x="487" y="525" width="100" height="40" as="geometry" />
        </mxCell>
        <mxCell id="8AIeRsSoH0E0mP_s3LuW-269" value="" style="group" vertex="1" connectable="0" parent="8AIeRsSoH0E0mP_s3LuW-268">
          <mxGeometry y="30" width="113.43380327337545" height="10" as="geometry" />
        </mxCell>
        <mxCell id="8AIeRsSoH0E0mP_s3LuW-270" value="" style="rounded=0;orthogonalLoop=1;jettySize=auto;html=1;endArrow=oval;endFill=0;sketch=0;sourcePerimeterSpacing=0;targetPerimeterSpacing=0;endSize=10;" edge="1" parent="8AIeRsSoH0E0mP_s3LuW-269" target="8AIeRsSoH0E0mP_s3LuW-271">
          <mxGeometry relative="1" as="geometry">
            <mxPoint x="113.43380327337545" y="5" as="sourcePoint" />
          </mxGeometry>
        </mxCell>
        <mxCell id="8AIeRsSoH0E0mP_s3LuW-271" value="" style="ellipse;whiteSpace=wrap;html=1;align=center;aspect=fixed;fillColor=none;strokeColor=none;resizable=0;perimeter=centerPerimeter;rotatable=0;allowArrows=0;points=[];outlineConnect=1;" vertex="1" parent="8AIeRsSoH0E0mP_s3LuW-269">
          <mxGeometry x="52.354063049250215" width="10" height="10" as="geometry" />
        </mxCell>
        <mxCell id="8AIeRsSoH0E0mP_s3LuW-272" value="" style="rounded=0;orthogonalLoop=1;jettySize=auto;html=1;endArrow=halfCircle;endFill=0;endSize=6;strokeWidth=1;sketch=0;" edge="1" parent="8AIeRsSoH0E0mP_s3LuW-269" target="8AIeRsSoH0E0mP_s3LuW-271">
          <mxGeometry relative="1" as="geometry">
            <mxPoint x="-15.124507103116729" y="5" as="sourcePoint" />
            <mxPoint x="61.44331010641171" y="5" as="targetPoint" />
          </mxGeometry>
        </mxCell>
        <mxCell id="8AIeRsSoH0E0mP_s3LuW-273" value="&lt;div&gt;SquadraDataMg&lt;/div&gt;" style="text;html=1;align=center;verticalAlign=middle;whiteSpace=wrap;rounded=0;" vertex="1" parent="8AIeRsSoH0E0mP_s3LuW-268">
          <mxGeometry x="26.467887430454276" width="45.373521309350174" height="30" as="geometry" />
        </mxCell>
        <mxCell id="8AIeRsSoH0E0mP_s3LuW-274" value="" style="group" vertex="1" connectable="0" parent="1">
          <mxGeometry x="487" y="604" width="100" height="40" as="geometry" />
        </mxCell>
        <mxCell id="8AIeRsSoH0E0mP_s3LuW-275" value="" style="group" vertex="1" connectable="0" parent="8AIeRsSoH0E0mP_s3LuW-274">
          <mxGeometry y="30" width="113.43380327337545" height="10" as="geometry" />
        </mxCell>
        <mxCell id="8AIeRsSoH0E0mP_s3LuW-276" value="" style="rounded=0;orthogonalLoop=1;jettySize=auto;html=1;endArrow=oval;endFill=0;sketch=0;sourcePerimeterSpacing=0;targetPerimeterSpacing=0;endSize=10;" edge="1" parent="8AIeRsSoH0E0mP_s3LuW-275" target="8AIeRsSoH0E0mP_s3LuW-277">
          <mxGeometry relative="1" as="geometry">
            <mxPoint x="113.43380327337545" y="5" as="sourcePoint" />
          </mxGeometry>
        </mxCell>
        <mxCell id="8AIeRsSoH0E0mP_s3LuW-277" value="" style="ellipse;whiteSpace=wrap;html=1;align=center;aspect=fixed;fillColor=none;strokeColor=none;resizable=0;perimeter=centerPerimeter;rotatable=0;allowArrows=0;points=[];outlineConnect=1;" vertex="1" parent="8AIeRsSoH0E0mP_s3LuW-275">
          <mxGeometry x="52.354063049250215" width="10" height="10" as="geometry" />
        </mxCell>
        <mxCell id="8AIeRsSoH0E0mP_s3LuW-278" value="" style="rounded=0;orthogonalLoop=1;jettySize=auto;html=1;endArrow=halfCircle;endFill=0;endSize=6;strokeWidth=1;sketch=0;" edge="1" parent="8AIeRsSoH0E0mP_s3LuW-275" target="8AIeRsSoH0E0mP_s3LuW-277">
          <mxGeometry relative="1" as="geometry">
            <mxPoint x="-15.124507103116729" y="5" as="sourcePoint" />
            <mxPoint x="61.44331010641171" y="5" as="targetPoint" />
          </mxGeometry>
        </mxCell>
        <mxCell id="8AIeRsSoH0E0mP_s3LuW-279" value="&lt;div&gt;MezzoDataMg&lt;/div&gt;" style="text;html=1;align=center;verticalAlign=middle;whiteSpace=wrap;rounded=0;" vertex="1" parent="8AIeRsSoH0E0mP_s3LuW-274">
          <mxGeometry x="26.467887430454276" width="45.373521309350174" height="30" as="geometry" />
        </mxCell>
        <mxCell id="8AIeRsSoH0E0mP_s3LuW-280" value="" style="group" vertex="1" connectable="0" parent="1">
          <mxGeometry x="484" y="680" width="100" height="40" as="geometry" />
        </mxCell>
        <mxCell id="8AIeRsSoH0E0mP_s3LuW-281" value="" style="group" vertex="1" connectable="0" parent="8AIeRsSoH0E0mP_s3LuW-280">
          <mxGeometry y="30" width="113.43380327337545" height="10" as="geometry" />
        </mxCell>
        <mxCell id="8AIeRsSoH0E0mP_s3LuW-282" value="" style="rounded=0;orthogonalLoop=1;jettySize=auto;html=1;endArrow=oval;endFill=0;sketch=0;sourcePerimeterSpacing=0;targetPerimeterSpacing=0;endSize=10;" edge="1" parent="8AIeRsSoH0E0mP_s3LuW-281" target="8AIeRsSoH0E0mP_s3LuW-283">
          <mxGeometry relative="1" as="geometry">
            <mxPoint x="113.43380327337545" y="5" as="sourcePoint" />
          </mxGeometry>
        </mxCell>
        <mxCell id="8AIeRsSoH0E0mP_s3LuW-283" value="" style="ellipse;whiteSpace=wrap;html=1;align=center;aspect=fixed;fillColor=none;strokeColor=none;resizable=0;perimeter=centerPerimeter;rotatable=0;allowArrows=0;points=[];outlineConnect=1;" vertex="1" parent="8AIeRsSoH0E0mP_s3LuW-281">
          <mxGeometry x="52.354063049250215" width="10" height="10" as="geometry" />
        </mxCell>
        <mxCell id="8AIeRsSoH0E0mP_s3LuW-284" value="" style="rounded=0;orthogonalLoop=1;jettySize=auto;html=1;endArrow=halfCircle;endFill=0;endSize=6;strokeWidth=1;sketch=0;" edge="1" parent="8AIeRsSoH0E0mP_s3LuW-281" target="8AIeRsSoH0E0mP_s3LuW-283">
          <mxGeometry relative="1" as="geometry">
            <mxPoint x="-15.124507103116729" y="5" as="sourcePoint" />
            <mxPoint x="61.44331010641171" y="5" as="targetPoint" />
          </mxGeometry>
        </mxCell>
        <mxCell id="8AIeRsSoH0E0mP_s3LuW-285" value="&lt;div&gt;PazienteDataMg&lt;/div&gt;" style="text;html=1;align=center;verticalAlign=middle;whiteSpace=wrap;rounded=0;" vertex="1" parent="8AIeRsSoH0E0mP_s3LuW-280">
          <mxGeometry x="26.467887430454276" width="45.373521309350174" height="30" as="geometry" />
        </mxCell>
        <mxCell id="8AIeRsSoH0E0mP_s3LuW-286" value="" style="group" vertex="1" connectable="0" parent="1">
          <mxGeometry x="165" y="205" width="100" height="40" as="geometry" />
        </mxCell>
        <mxCell id="8AIeRsSoH0E0mP_s3LuW-287" value="" style="group" vertex="1" connectable="0" parent="8AIeRsSoH0E0mP_s3LuW-286">
          <mxGeometry y="30" width="113.43380327337545" height="10" as="geometry" />
        </mxCell>
        <mxCell id="8AIeRsSoH0E0mP_s3LuW-288" value="" style="rounded=0;orthogonalLoop=1;jettySize=auto;html=1;endArrow=oval;endFill=0;sketch=0;sourcePerimeterSpacing=0;targetPerimeterSpacing=0;endSize=10;" edge="1" parent="8AIeRsSoH0E0mP_s3LuW-287" target="8AIeRsSoH0E0mP_s3LuW-289">
          <mxGeometry relative="1" as="geometry">
            <mxPoint x="113.43380327337545" y="5" as="sourcePoint" />
          </mxGeometry>
        </mxCell>
        <mxCell id="8AIeRsSoH0E0mP_s3LuW-289" value="" style="ellipse;whiteSpace=wrap;html=1;align=center;aspect=fixed;fillColor=none;strokeColor=none;resizable=0;perimeter=centerPerimeter;rotatable=0;allowArrows=0;points=[];outlineConnect=1;" vertex="1" parent="8AIeRsSoH0E0mP_s3LuW-287">
          <mxGeometry x="52.354063049250215" width="10" height="10" as="geometry" />
        </mxCell>
        <mxCell id="8AIeRsSoH0E0mP_s3LuW-290" value="" style="rounded=0;orthogonalLoop=1;jettySize=auto;html=1;endArrow=halfCircle;endFill=0;endSize=6;strokeWidth=1;sketch=0;" edge="1" parent="8AIeRsSoH0E0mP_s3LuW-287" target="8AIeRsSoH0E0mP_s3LuW-289">
          <mxGeometry relative="1" as="geometry">
            <mxPoint x="-15.124507103116729" y="5" as="sourcePoint" />
            <mxPoint x="61.44331010641171" y="5" as="targetPoint" />
          </mxGeometry>
        </mxCell>
        <mxCell id="8AIeRsSoH0E0mP_s3LuW-291" value="EmergenzaMg" style="text;html=1;align=center;verticalAlign=middle;whiteSpace=wrap;rounded=0;" vertex="1" parent="8AIeRsSoH0E0mP_s3LuW-286">
          <mxGeometry x="26.467887430454276" width="45.373521309350174" height="30" as="geometry" />
        </mxCell>
        <mxCell id="8AIeRsSoH0E0mP_s3LuW-292" value="" style="group" vertex="1" connectable="0" parent="1">
          <mxGeometry x="165" y="285" width="100" height="40" as="geometry" />
        </mxCell>
        <mxCell id="8AIeRsSoH0E0mP_s3LuW-293" value="" style="group" vertex="1" connectable="0" parent="8AIeRsSoH0E0mP_s3LuW-292">
          <mxGeometry y="30" width="113.43380327337545" height="10" as="geometry" />
        </mxCell>
        <mxCell id="8AIeRsSoH0E0mP_s3LuW-294" value="" style="rounded=0;orthogonalLoop=1;jettySize=auto;html=1;endArrow=oval;endFill=0;sketch=0;sourcePerimeterSpacing=0;targetPerimeterSpacing=0;endSize=10;" edge="1" parent="8AIeRsSoH0E0mP_s3LuW-293" target="8AIeRsSoH0E0mP_s3LuW-295">
          <mxGeometry relative="1" as="geometry">
            <mxPoint x="113.43380327337545" y="5" as="sourcePoint" />
          </mxGeometry>
        </mxCell>
        <mxCell id="8AIeRsSoH0E0mP_s3LuW-295" value="" style="ellipse;whiteSpace=wrap;html=1;align=center;aspect=fixed;fillColor=none;strokeColor=none;resizable=0;perimeter=centerPerimeter;rotatable=0;allowArrows=0;points=[];outlineConnect=1;" vertex="1" parent="8AIeRsSoH0E0mP_s3LuW-293">
          <mxGeometry x="52.354063049250215" width="10" height="10" as="geometry" />
        </mxCell>
        <mxCell id="8AIeRsSoH0E0mP_s3LuW-296" value="" style="rounded=0;orthogonalLoop=1;jettySize=auto;html=1;endArrow=halfCircle;endFill=0;endSize=6;strokeWidth=1;sketch=0;" edge="1" parent="8AIeRsSoH0E0mP_s3LuW-293" target="8AIeRsSoH0E0mP_s3LuW-295">
          <mxGeometry relative="1" as="geometry">
            <mxPoint x="-15.124507103116729" y="5" as="sourcePoint" />
            <mxPoint x="61.44331010641171" y="5" as="targetPoint" />
          </mxGeometry>
        </mxCell>
        <mxCell id="8AIeRsSoH0E0mP_s3LuW-297" value="VolontarioMg" style="text;html=1;align=center;verticalAlign=middle;whiteSpace=wrap;rounded=0;" vertex="1" parent="8AIeRsSoH0E0mP_s3LuW-292">
          <mxGeometry x="26.467887430454276" width="45.373521309350174" height="30" as="geometry" />
        </mxCell>
        <mxCell id="8AIeRsSoH0E0mP_s3LuW-298" value="" style="group" vertex="1" connectable="0" parent="1">
          <mxGeometry x="167" y="366" width="100" height="40" as="geometry" />
        </mxCell>
        <mxCell id="8AIeRsSoH0E0mP_s3LuW-299" value="" style="group" vertex="1" connectable="0" parent="8AIeRsSoH0E0mP_s3LuW-298">
          <mxGeometry y="30" width="113.43380327337545" height="10" as="geometry" />
        </mxCell>
        <mxCell id="8AIeRsSoH0E0mP_s3LuW-300" value="" style="rounded=0;orthogonalLoop=1;jettySize=auto;html=1;endArrow=oval;endFill=0;sketch=0;sourcePerimeterSpacing=0;targetPerimeterSpacing=0;endSize=10;" edge="1" parent="8AIeRsSoH0E0mP_s3LuW-299" target="8AIeRsSoH0E0mP_s3LuW-301">
          <mxGeometry relative="1" as="geometry">
            <mxPoint x="113.43380327337545" y="5" as="sourcePoint" />
          </mxGeometry>
        </mxCell>
        <mxCell id="8AIeRsSoH0E0mP_s3LuW-301" value="" style="ellipse;whiteSpace=wrap;html=1;align=center;aspect=fixed;fillColor=none;strokeColor=none;resizable=0;perimeter=centerPerimeter;rotatable=0;allowArrows=0;points=[];outlineConnect=1;" vertex="1" parent="8AIeRsSoH0E0mP_s3LuW-299">
          <mxGeometry x="52.354063049250215" width="10" height="10" as="geometry" />
        </mxCell>
        <mxCell id="8AIeRsSoH0E0mP_s3LuW-302" value="" style="rounded=0;orthogonalLoop=1;jettySize=auto;html=1;endArrow=halfCircle;endFill=0;endSize=6;strokeWidth=1;sketch=0;" edge="1" parent="8AIeRsSoH0E0mP_s3LuW-299" target="8AIeRsSoH0E0mP_s3LuW-301">
          <mxGeometry relative="1" as="geometry">
            <mxPoint x="-15.124507103116729" y="5" as="sourcePoint" />
            <mxPoint x="61.44331010641171" y="5" as="targetPoint" />
          </mxGeometry>
        </mxCell>
        <mxCell id="8AIeRsSoH0E0mP_s3LuW-303" value="Operatore118Mg" style="text;html=1;align=center;verticalAlign=middle;whiteSpace=wrap;rounded=0;" vertex="1" parent="8AIeRsSoH0E0mP_s3LuW-298">
          <mxGeometry x="26.467887430454276" width="45.373521309350174" height="30" as="geometry" />
        </mxCell>
        <mxCell id="8AIeRsSoH0E0mP_s3LuW-304" value="" style="group" vertex="1" connectable="0" parent="1">
          <mxGeometry x="166" y="445" width="100" height="40" as="geometry" />
        </mxCell>
        <mxCell id="8AIeRsSoH0E0mP_s3LuW-305" value="" style="group" vertex="1" connectable="0" parent="8AIeRsSoH0E0mP_s3LuW-304">
          <mxGeometry y="30" width="113.43380327337545" height="10" as="geometry" />
        </mxCell>
        <mxCell id="8AIeRsSoH0E0mP_s3LuW-306" value="" style="rounded=0;orthogonalLoop=1;jettySize=auto;html=1;endArrow=oval;endFill=0;sketch=0;sourcePerimeterSpacing=0;targetPerimeterSpacing=0;endSize=10;" edge="1" parent="8AIeRsSoH0E0mP_s3LuW-305" target="8AIeRsSoH0E0mP_s3LuW-307">
          <mxGeometry relative="1" as="geometry">
            <mxPoint x="113.43380327337545" y="5" as="sourcePoint" />
          </mxGeometry>
        </mxCell>
        <mxCell id="8AIeRsSoH0E0mP_s3LuW-307" value="" style="ellipse;whiteSpace=wrap;html=1;align=center;aspect=fixed;fillColor=none;strokeColor=none;resizable=0;perimeter=centerPerimeter;rotatable=0;allowArrows=0;points=[];outlineConnect=1;" vertex="1" parent="8AIeRsSoH0E0mP_s3LuW-305">
          <mxGeometry x="52.354063049250215" width="10" height="10" as="geometry" />
        </mxCell>
        <mxCell id="8AIeRsSoH0E0mP_s3LuW-308" value="" style="rounded=0;orthogonalLoop=1;jettySize=auto;html=1;endArrow=halfCircle;endFill=0;endSize=6;strokeWidth=1;sketch=0;" edge="1" parent="8AIeRsSoH0E0mP_s3LuW-305" target="8AIeRsSoH0E0mP_s3LuW-307">
          <mxGeometry relative="1" as="geometry">
            <mxPoint x="-15.124507103116729" y="5" as="sourcePoint" />
            <mxPoint x="61.44331010641171" y="5" as="targetPoint" />
          </mxGeometry>
        </mxCell>
        <mxCell id="8AIeRsSoH0E0mP_s3LuW-309" value="OspedaleMg" style="text;html=1;align=center;verticalAlign=middle;whiteSpace=wrap;rounded=0;" vertex="1" parent="8AIeRsSoH0E0mP_s3LuW-304">
          <mxGeometry x="26.467887430454276" width="45.373521309350174" height="30" as="geometry" />
        </mxCell>
        <mxCell id="8AIeRsSoH0E0mP_s3LuW-310" value="" style="group" vertex="1" connectable="0" parent="1">
          <mxGeometry x="166" y="527" width="100" height="40" as="geometry" />
        </mxCell>
        <mxCell id="8AIeRsSoH0E0mP_s3LuW-311" value="" style="group" vertex="1" connectable="0" parent="8AIeRsSoH0E0mP_s3LuW-310">
          <mxGeometry y="30" width="113.43380327337545" height="10" as="geometry" />
        </mxCell>
        <mxCell id="8AIeRsSoH0E0mP_s3LuW-312" value="" style="rounded=0;orthogonalLoop=1;jettySize=auto;html=1;endArrow=oval;endFill=0;sketch=0;sourcePerimeterSpacing=0;targetPerimeterSpacing=0;endSize=10;" edge="1" parent="8AIeRsSoH0E0mP_s3LuW-311" target="8AIeRsSoH0E0mP_s3LuW-313">
          <mxGeometry relative="1" as="geometry">
            <mxPoint x="113.43380327337545" y="5" as="sourcePoint" />
          </mxGeometry>
        </mxCell>
        <mxCell id="8AIeRsSoH0E0mP_s3LuW-313" value="" style="ellipse;whiteSpace=wrap;html=1;align=center;aspect=fixed;fillColor=none;strokeColor=none;resizable=0;perimeter=centerPerimeter;rotatable=0;allowArrows=0;points=[];outlineConnect=1;" vertex="1" parent="8AIeRsSoH0E0mP_s3LuW-311">
          <mxGeometry x="52.354063049250215" width="10" height="10" as="geometry" />
        </mxCell>
        <mxCell id="8AIeRsSoH0E0mP_s3LuW-314" value="" style="rounded=0;orthogonalLoop=1;jettySize=auto;html=1;endArrow=halfCircle;endFill=0;endSize=6;strokeWidth=1;sketch=0;" edge="1" parent="8AIeRsSoH0E0mP_s3LuW-311" target="8AIeRsSoH0E0mP_s3LuW-313">
          <mxGeometry relative="1" as="geometry">
            <mxPoint x="-15.124507103116729" y="5" as="sourcePoint" />
            <mxPoint x="61.44331010641171" y="5" as="targetPoint" />
          </mxGeometry>
        </mxCell>
        <mxCell id="8AIeRsSoH0E0mP_s3LuW-315" value="SquadraMg" style="text;html=1;align=center;verticalAlign=middle;whiteSpace=wrap;rounded=0;" vertex="1" parent="8AIeRsSoH0E0mP_s3LuW-310">
          <mxGeometry x="26.467887430454276" width="45.373521309350174" height="30" as="geometry" />
        </mxCell>
        <mxCell id="8AIeRsSoH0E0mP_s3LuW-316" value="" style="group" vertex="1" connectable="0" parent="1">
          <mxGeometry x="166" y="606" width="100" height="40" as="geometry" />
        </mxCell>
        <mxCell id="8AIeRsSoH0E0mP_s3LuW-317" value="" style="group" vertex="1" connectable="0" parent="8AIeRsSoH0E0mP_s3LuW-316">
          <mxGeometry y="30" width="113.43380327337545" height="10" as="geometry" />
        </mxCell>
        <mxCell id="8AIeRsSoH0E0mP_s3LuW-318" value="" style="rounded=0;orthogonalLoop=1;jettySize=auto;html=1;endArrow=oval;endFill=0;sketch=0;sourcePerimeterSpacing=0;targetPerimeterSpacing=0;endSize=10;" edge="1" parent="8AIeRsSoH0E0mP_s3LuW-317" target="8AIeRsSoH0E0mP_s3LuW-319">
          <mxGeometry relative="1" as="geometry">
            <mxPoint x="113.43380327337545" y="5" as="sourcePoint" />
          </mxGeometry>
        </mxCell>
        <mxCell id="8AIeRsSoH0E0mP_s3LuW-319" value="" style="ellipse;whiteSpace=wrap;html=1;align=center;aspect=fixed;fillColor=none;strokeColor=none;resizable=0;perimeter=centerPerimeter;rotatable=0;allowArrows=0;points=[];outlineConnect=1;" vertex="1" parent="8AIeRsSoH0E0mP_s3LuW-317">
          <mxGeometry x="52.354063049250215" width="10" height="10" as="geometry" />
        </mxCell>
        <mxCell id="8AIeRsSoH0E0mP_s3LuW-320" value="" style="rounded=0;orthogonalLoop=1;jettySize=auto;html=1;endArrow=halfCircle;endFill=0;endSize=6;strokeWidth=1;sketch=0;" edge="1" parent="8AIeRsSoH0E0mP_s3LuW-317" target="8AIeRsSoH0E0mP_s3LuW-319">
          <mxGeometry relative="1" as="geometry">
            <mxPoint x="-15.124507103116729" y="5" as="sourcePoint" />
            <mxPoint x="61.44331010641171" y="5" as="targetPoint" />
          </mxGeometry>
        </mxCell>
        <mxCell id="8AIeRsSoH0E0mP_s3LuW-321" value="MezzoMg" style="text;html=1;align=center;verticalAlign=middle;whiteSpace=wrap;rounded=0;" vertex="1" parent="8AIeRsSoH0E0mP_s3LuW-316">
          <mxGeometry x="26.467887430454276" width="45.373521309350174" height="30" as="geometry" />
        </mxCell>
        <mxCell id="8AIeRsSoH0E0mP_s3LuW-322" value="" style="group" vertex="1" connectable="0" parent="1">
          <mxGeometry x="166" y="690" width="100" height="40" as="geometry" />
        </mxCell>
        <mxCell id="8AIeRsSoH0E0mP_s3LuW-323" value="" style="group" vertex="1" connectable="0" parent="8AIeRsSoH0E0mP_s3LuW-322">
          <mxGeometry y="30" width="113.43380327337545" height="10" as="geometry" />
        </mxCell>
        <mxCell id="8AIeRsSoH0E0mP_s3LuW-324" value="" style="rounded=0;orthogonalLoop=1;jettySize=auto;html=1;endArrow=oval;endFill=0;sketch=0;sourcePerimeterSpacing=0;targetPerimeterSpacing=0;endSize=10;" edge="1" parent="8AIeRsSoH0E0mP_s3LuW-323" target="8AIeRsSoH0E0mP_s3LuW-325">
          <mxGeometry relative="1" as="geometry">
            <mxPoint x="113.43380327337545" y="5" as="sourcePoint" />
          </mxGeometry>
        </mxCell>
        <mxCell id="8AIeRsSoH0E0mP_s3LuW-325" value="" style="ellipse;whiteSpace=wrap;html=1;align=center;aspect=fixed;fillColor=none;strokeColor=none;resizable=0;perimeter=centerPerimeter;rotatable=0;allowArrows=0;points=[];outlineConnect=1;" vertex="1" parent="8AIeRsSoH0E0mP_s3LuW-323">
          <mxGeometry x="52.354063049250215" width="10" height="10" as="geometry" />
        </mxCell>
        <mxCell id="8AIeRsSoH0E0mP_s3LuW-326" value="" style="rounded=0;orthogonalLoop=1;jettySize=auto;html=1;endArrow=halfCircle;endFill=0;endSize=6;strokeWidth=1;sketch=0;" edge="1" parent="8AIeRsSoH0E0mP_s3LuW-323" target="8AIeRsSoH0E0mP_s3LuW-325">
          <mxGeometry relative="1" as="geometry">
            <mxPoint x="-15.124507103116729" y="5" as="sourcePoint" />
            <mxPoint x="61.44331010641171" y="5" as="targetPoint" />
          </mxGeometry>
        </mxCell>
        <mxCell id="8AIeRsSoH0E0mP_s3LuW-327" value="PazienteMg" style="text;html=1;align=center;verticalAlign=middle;whiteSpace=wrap;rounded=0;" vertex="1" parent="8AIeRsSoH0E0mP_s3LuW-322">
          <mxGeometry x="26.467887430454276" width="45.373521309350174" height="30" as="geometry" />
        </mxCell>
      </root>
    </mxGraphModel>
  </diagram>
</mxfile>
